<mxfile host="app.diagrams.net" modified="2020-09-23T03:58:54.886Z" agent="5.0 (Windows NT 10.0; WOW64) AppleWebKit/537.36 (KHTML, like Gecko) coc_coc_browser/89.0.124 Chrome/83.0.4103.124 Safari/537.36" etag="2oNyRXblT6k1kKqhq7hq" version="13.7.4" type="github">
  <diagram id="R2lEEEUBdFMjLlhIrx00" name="Page-1">
    <mxGraphModel dx="2019" dy="627" grid="1" gridSize="10" guides="1" tooltips="1" connect="1" arrows="1" fold="1" page="1" pageScale="1" pageWidth="850" pageHeight="1100" math="0" shadow="0" extFonts="Permanent Marker^https://fonts.googleapis.com/css?family=Permanent+Marker">
      <root>
        <mxCell id="0" />
        <mxCell id="1" parent="0" />
        <mxCell id="NY_QWn5QvtJODzJ5zNdS-1" value="Văn phòng" style="whiteSpace=wrap;html=1;align=center;" vertex="1" parent="1">
          <mxGeometry x="-50" y="70" width="100" height="40" as="geometry" />
        </mxCell>
        <mxCell id="NY_QWn5QvtJODzJ5zNdS-2" value="Nhân viên" style="whiteSpace=wrap;html=1;align=center;" vertex="1" parent="1">
          <mxGeometry x="330" y="70" width="100" height="40" as="geometry" />
        </mxCell>
        <mxCell id="NY_QWn5QvtJODzJ5zNdS-5" value="Sản phẩm BDS" style="whiteSpace=wrap;html=1;align=center;" vertex="1" parent="1">
          <mxGeometry x="-50" y="290" width="100" height="40" as="geometry" />
        </mxCell>
        <mxCell id="NY_QWn5QvtJODzJ5zNdS-7" value="Chủ sở hữu" style="whiteSpace=wrap;html=1;align=center;" vertex="1" parent="1">
          <mxGeometry x="340" y="300" width="100" height="40" as="geometry" />
        </mxCell>
        <mxCell id="NY_QWn5QvtJODzJ5zNdS-8" value="Mã VP" style="ellipse;whiteSpace=wrap;html=1;align=center;fontStyle=4;" vertex="1" parent="1">
          <mxGeometry x="-140" y="30" width="100" height="40" as="geometry" />
        </mxCell>
        <mxCell id="NY_QWn5QvtJODzJ5zNdS-10" value="Địa chỉ" style="ellipse;whiteSpace=wrap;html=1;align=center;" vertex="1" parent="1">
          <mxGeometry y="10" width="100" height="40" as="geometry" />
        </mxCell>
        <mxCell id="NY_QWn5QvtJODzJ5zNdS-11" value="Mã NV" style="ellipse;whiteSpace=wrap;html=1;align=center;fontStyle=4;" vertex="1" parent="1">
          <mxGeometry x="240" width="100" height="40" as="geometry" />
        </mxCell>
        <mxCell id="NY_QWn5QvtJODzJ5zNdS-12" value="Tên&amp;nbsp; NV" style="ellipse;whiteSpace=wrap;html=1;align=center;" vertex="1" parent="1">
          <mxGeometry x="370" y="130" width="100" height="40" as="geometry" />
        </mxCell>
        <mxCell id="NY_QWn5QvtJODzJ5zNdS-16" value="Tên NT" style="ellipse;whiteSpace=wrap;html=1;align=center;" vertex="1" parent="1">
          <mxGeometry x="610" width="100" height="40" as="geometry" />
        </mxCell>
        <mxCell id="NY_QWn5QvtJODzJ5zNdS-17" value="Ngày sinh" style="ellipse;whiteSpace=wrap;html=1;align=center;" vertex="1" parent="1">
          <mxGeometry x="710" y="110" width="100" height="40" as="geometry" />
        </mxCell>
        <mxCell id="NY_QWn5QvtJODzJ5zNdS-20" value="Mã BĐS" style="ellipse;whiteSpace=wrap;html=1;align=center;fontStyle=4;" vertex="1" parent="1">
          <mxGeometry x="-160" y="290" width="100" height="40" as="geometry" />
        </mxCell>
        <mxCell id="NY_QWn5QvtJODzJ5zNdS-22" value="Mã CSH" style="ellipse;whiteSpace=wrap;html=1;align=center;fontStyle=4;" vertex="1" parent="1">
          <mxGeometry x="450" y="390" width="100" height="40" as="geometry" />
        </mxCell>
        <mxCell id="NY_QWn5QvtJODzJ5zNdS-23" value="Tên CSH" style="ellipse;whiteSpace=wrap;html=1;align=center;" vertex="1" parent="1">
          <mxGeometry x="400" y="210" width="100" height="40" as="geometry" />
        </mxCell>
        <mxCell id="NY_QWn5QvtJODzJ5zNdS-24" value="Địa chỉ" style="ellipse;whiteSpace=wrap;html=1;align=center;" vertex="1" parent="1">
          <mxGeometry x="-50" y="360" width="100" height="40" as="geometry" />
        </mxCell>
        <mxCell id="NY_QWn5QvtJODzJ5zNdS-44" value="Mối liên hệ" style="ellipse;shape=doubleEllipse;margin=3;whiteSpace=wrap;html=1;align=center;" vertex="1" parent="1">
          <mxGeometry x="700" y="50" width="100" height="40" as="geometry" />
        </mxCell>
        <mxCell id="NY_QWn5QvtJODzJ5zNdS-45" value="" style="endArrow=none;html=1;rounded=0;strokeWidth=2;exitX=1;exitY=0.5;exitDx=0;exitDy=0;entryX=0.168;entryY=-0.01;entryDx=0;entryDy=0;entryPerimeter=0;" edge="1" parent="1" source="NY_QWn5QvtJODzJ5zNdS-8" target="NY_QWn5QvtJODzJ5zNdS-1">
          <mxGeometry relative="1" as="geometry">
            <mxPoint x="90" y="50" as="sourcePoint" />
            <mxPoint x="120" y="80" as="targetPoint" />
          </mxGeometry>
        </mxCell>
        <mxCell id="NY_QWn5QvtJODzJ5zNdS-46" value="" style="endArrow=none;html=1;rounded=0;strokeWidth=2;entryX=0.5;entryY=1;entryDx=0;entryDy=0;exitX=0.5;exitY=0;exitDx=0;exitDy=0;" edge="1" parent="1" source="NY_QWn5QvtJODzJ5zNdS-1" target="NY_QWn5QvtJODzJ5zNdS-10">
          <mxGeometry relative="1" as="geometry">
            <mxPoint x="130" y="50" as="sourcePoint" />
            <mxPoint x="155" y="70" as="targetPoint" />
          </mxGeometry>
        </mxCell>
        <mxCell id="NY_QWn5QvtJODzJ5zNdS-51" value="" style="endArrow=none;html=1;rounded=0;strokeWidth=2;" edge="1" parent="1" source="NY_QWn5QvtJODzJ5zNdS-2" target="NY_QWn5QvtJODzJ5zNdS-11">
          <mxGeometry relative="1" as="geometry">
            <mxPoint x="180" y="70" as="sourcePoint" />
            <mxPoint x="160" y="50" as="targetPoint" />
          </mxGeometry>
        </mxCell>
        <mxCell id="NY_QWn5QvtJODzJ5zNdS-52" value="" style="endArrow=none;html=1;rounded=0;strokeWidth=2;exitX=0.5;exitY=0;exitDx=0;exitDy=0;entryX=0;entryY=1;entryDx=0;entryDy=0;" edge="1" parent="1" source="NY_QWn5QvtJODzJ5zNdS-2">
          <mxGeometry relative="1" as="geometry">
            <mxPoint x="360" y="70" as="sourcePoint" />
            <mxPoint x="374.8544793961855" y="34.22556786344842" as="targetPoint" />
          </mxGeometry>
        </mxCell>
        <mxCell id="NY_QWn5QvtJODzJ5zNdS-54" value="" style="endArrow=none;html=1;rounded=0;strokeWidth=2;entryX=0.5;entryY=1;entryDx=0;entryDy=0;" edge="1" parent="1" source="NY_QWn5QvtJODzJ5zNdS-12" target="NY_QWn5QvtJODzJ5zNdS-2">
          <mxGeometry relative="1" as="geometry">
            <mxPoint x="390" y="70" as="sourcePoint" />
            <mxPoint x="384.64466094067257" y="44.14213562373084" as="targetPoint" />
          </mxGeometry>
        </mxCell>
        <mxCell id="NY_QWn5QvtJODzJ5zNdS-55" value="" style="endArrow=none;html=1;rounded=0;strokeWidth=2;exitX=0.365;exitY=0.04;exitDx=0;exitDy=0;entryX=1;entryY=1;entryDx=0;entryDy=0;exitPerimeter=0;" edge="1" parent="1">
          <mxGeometry relative="1" as="geometry">
            <mxPoint x="596.5000000000005" y="71.59999999999991" as="sourcePoint" />
            <mxPoint x="575.1455206038422" y="34.22556786345979" as="targetPoint" />
          </mxGeometry>
        </mxCell>
        <mxCell id="NY_QWn5QvtJODzJ5zNdS-58" value="" style="endArrow=none;html=1;rounded=0;strokeWidth=2;exitX=0.348;exitY=1;exitDx=0;exitDy=0;entryX=0.75;entryY=0;entryDx=0;entryDy=0;exitPerimeter=0;" edge="1" parent="1" source="NY_QWn5QvtJODzJ5zNdS-16">
          <mxGeometry relative="1" as="geometry">
            <mxPoint x="410" y="90" as="sourcePoint" />
            <mxPoint x="635" y="69.99999999999989" as="targetPoint" />
          </mxGeometry>
        </mxCell>
        <mxCell id="NY_QWn5QvtJODzJ5zNdS-59" value="" style="endArrow=none;html=1;rounded=0;strokeWidth=2;exitX=0;exitY=0.5;exitDx=0;exitDy=0;entryX=1;entryY=0.5;entryDx=0;entryDy=0;" edge="1" parent="1" source="NY_QWn5QvtJODzJ5zNdS-44">
          <mxGeometry relative="1" as="geometry">
            <mxPoint x="654.8000000000002" y="50" as="sourcePoint" />
            <mxPoint x="660" y="89.99999999999989" as="targetPoint" />
          </mxGeometry>
        </mxCell>
        <mxCell id="NY_QWn5QvtJODzJ5zNdS-60" value="" style="endArrow=none;html=1;rounded=0;strokeWidth=2;exitX=-0.012;exitY=0.35;exitDx=0;exitDy=0;exitPerimeter=0;entryX=1;entryY=0.5;entryDx=0;entryDy=0;" edge="1" parent="1" source="NY_QWn5QvtJODzJ5zNdS-17">
          <mxGeometry relative="1" as="geometry">
            <mxPoint x="664.8000000000002" y="60" as="sourcePoint" />
            <mxPoint x="660" y="89.99999999999989" as="targetPoint" />
          </mxGeometry>
        </mxCell>
        <mxCell id="NY_QWn5QvtJODzJ5zNdS-67" value="" style="endArrow=none;html=1;rounded=0;strokeWidth=2;entryX=1;entryY=0.5;entryDx=0;entryDy=0;exitX=0;exitY=0.5;exitDx=0;exitDy=0;" edge="1" parent="1" source="NY_QWn5QvtJODzJ5zNdS-5" target="NY_QWn5QvtJODzJ5zNdS-20">
          <mxGeometry relative="1" as="geometry">
            <mxPoint x="180" y="70" as="sourcePoint" />
            <mxPoint x="160" y="50" as="targetPoint" />
          </mxGeometry>
        </mxCell>
        <mxCell id="NY_QWn5QvtJODzJ5zNdS-68" value="" style="endArrow=none;html=1;rounded=0;strokeWidth=2;entryX=0.5;entryY=0;entryDx=0;entryDy=0;exitX=0.176;exitY=1.04;exitDx=0;exitDy=0;exitPerimeter=0;" edge="1" parent="1" source="NY_QWn5QvtJODzJ5zNdS-5" target="NY_QWn5QvtJODzJ5zNdS-24">
          <mxGeometry relative="1" as="geometry">
            <mxPoint x="130" y="230" as="sourcePoint" />
            <mxPoint x="101.59999999999991" y="268.79999999999995" as="targetPoint" />
          </mxGeometry>
        </mxCell>
        <mxCell id="NY_QWn5QvtJODzJ5zNdS-69" value="Số điện thoại" style="ellipse;whiteSpace=wrap;html=1;align=center;" vertex="1" parent="1">
          <mxGeometry x="550" y="310" width="100" height="40" as="geometry" />
        </mxCell>
        <mxCell id="NY_QWn5QvtJODzJ5zNdS-70" value="Địa chỉ" style="ellipse;whiteSpace=wrap;html=1;align=center;" vertex="1" parent="1">
          <mxGeometry x="540" y="230" width="100" height="50" as="geometry" />
        </mxCell>
        <mxCell id="NY_QWn5QvtJODzJ5zNdS-71" value="" style="endArrow=none;html=1;rounded=0;strokeWidth=2;exitX=0.5;exitY=1;exitDx=0;exitDy=0;" edge="1" parent="1" source="NY_QWn5QvtJODzJ5zNdS-23" target="NY_QWn5QvtJODzJ5zNdS-7">
          <mxGeometry relative="1" as="geometry">
            <mxPoint x="147.5999999999999" y="251.60000000000002" as="sourcePoint" />
            <mxPoint x="111.59999999999991" y="278.79999999999995" as="targetPoint" />
          </mxGeometry>
        </mxCell>
        <mxCell id="NY_QWn5QvtJODzJ5zNdS-72" value="" style="endArrow=none;html=1;rounded=0;strokeWidth=2;entryX=1;entryY=0.5;entryDx=0;entryDy=0;" edge="1" parent="1" source="NY_QWn5QvtJODzJ5zNdS-70" target="NY_QWn5QvtJODzJ5zNdS-7">
          <mxGeometry relative="1" as="geometry">
            <mxPoint x="430" y="190" as="sourcePoint" />
            <mxPoint x="420" y="210" as="targetPoint" />
          </mxGeometry>
        </mxCell>
        <mxCell id="NY_QWn5QvtJODzJ5zNdS-73" value="" style="endArrow=none;html=1;rounded=0;strokeWidth=2;entryX=1;entryY=0.75;entryDx=0;entryDy=0;" edge="1" parent="1" source="NY_QWn5QvtJODzJ5zNdS-69" target="NY_QWn5QvtJODzJ5zNdS-7">
          <mxGeometry relative="1" as="geometry">
            <mxPoint x="440" y="200" as="sourcePoint" />
            <mxPoint x="450" y="230" as="targetPoint" />
          </mxGeometry>
        </mxCell>
        <mxCell id="NY_QWn5QvtJODzJ5zNdS-74" value="" style="endArrow=none;html=1;rounded=0;strokeWidth=2;exitX=0.75;exitY=1;exitDx=0;exitDy=0;entryX=0.6;entryY=0;entryDx=0;entryDy=0;entryPerimeter=0;" edge="1" parent="1" source="NY_QWn5QvtJODzJ5zNdS-7" target="NY_QWn5QvtJODzJ5zNdS-22">
          <mxGeometry relative="1" as="geometry">
            <mxPoint x="450" y="210" as="sourcePoint" />
            <mxPoint x="440" y="230" as="targetPoint" />
          </mxGeometry>
        </mxCell>
        <mxCell id="NY_QWn5QvtJODzJ5zNdS-79" value="Làm việc" style="shape=rhombus;perimeter=rhombusPerimeter;whiteSpace=wrap;html=1;align=center;" vertex="1" parent="1">
          <mxGeometry x="150" y="70" width="80" height="40" as="geometry" />
        </mxCell>
        <mxCell id="NY_QWn5QvtJODzJ5zNdS-80" value="" style="endArrow=none;html=1;rounded=0;strokeWidth=2;entryX=1;entryY=0.5;entryDx=0;entryDy=0;" edge="1" parent="1" source="NY_QWn5QvtJODzJ5zNdS-79" target="NY_QWn5QvtJODzJ5zNdS-1">
          <mxGeometry relative="1" as="geometry">
            <mxPoint x="340" y="160" as="sourcePoint" />
            <mxPoint x="500" y="160" as="targetPoint" />
          </mxGeometry>
        </mxCell>
        <mxCell id="NY_QWn5QvtJODzJ5zNdS-81" value="1" style="resizable=0;html=1;align=right;verticalAlign=bottom;" connectable="0" vertex="1" parent="NY_QWn5QvtJODzJ5zNdS-80">
          <mxGeometry x="1" relative="1" as="geometry">
            <mxPoint x="11" as="offset" />
          </mxGeometry>
        </mxCell>
        <mxCell id="NY_QWn5QvtJODzJ5zNdS-82" value="" style="endArrow=none;html=1;rounded=0;strokeWidth=2;entryX=0;entryY=0.5;entryDx=0;entryDy=0;exitX=1;exitY=0.5;exitDx=0;exitDy=0;" edge="1" parent="1" source="NY_QWn5QvtJODzJ5zNdS-79" target="NY_QWn5QvtJODzJ5zNdS-2">
          <mxGeometry relative="1" as="geometry">
            <mxPoint x="160" y="100" as="sourcePoint" />
            <mxPoint x="90" y="100" as="targetPoint" />
          </mxGeometry>
        </mxCell>
        <mxCell id="NY_QWn5QvtJODzJ5zNdS-83" value="n" style="resizable=0;html=1;align=right;verticalAlign=bottom;" connectable="0" vertex="1" parent="NY_QWn5QvtJODzJ5zNdS-82">
          <mxGeometry x="1" relative="1" as="geometry">
            <mxPoint x="-4" as="offset" />
          </mxGeometry>
        </mxCell>
        <mxCell id="NY_QWn5QvtJODzJ5zNdS-85" value="trưởng phòng" style="shape=rhombus;perimeter=rhombusPerimeter;whiteSpace=wrap;html=1;align=center;" vertex="1" parent="1">
          <mxGeometry x="135" y="140" width="110" height="40" as="geometry" />
        </mxCell>
        <mxCell id="NY_QWn5QvtJODzJ5zNdS-86" value="" style="endArrow=none;html=1;rounded=0;strokeWidth=2;entryX=1;entryY=0.5;entryDx=0;entryDy=0;exitX=0;exitY=0.5;exitDx=0;exitDy=0;" edge="1" parent="1" source="NY_QWn5QvtJODzJ5zNdS-85" target="NY_QWn5QvtJODzJ5zNdS-1">
          <mxGeometry relative="1" as="geometry">
            <mxPoint x="340" y="210" as="sourcePoint" />
            <mxPoint x="80" y="140" as="targetPoint" />
          </mxGeometry>
        </mxCell>
        <mxCell id="NY_QWn5QvtJODzJ5zNdS-87" value="1" style="resizable=0;html=1;align=right;verticalAlign=bottom;" connectable="0" vertex="1" parent="NY_QWn5QvtJODzJ5zNdS-86">
          <mxGeometry x="1" relative="1" as="geometry">
            <mxPoint x="11" as="offset" />
          </mxGeometry>
        </mxCell>
        <mxCell id="NY_QWn5QvtJODzJ5zNdS-88" value="" style="endArrow=none;html=1;rounded=0;strokeWidth=2;entryX=0;entryY=0.5;entryDx=0;entryDy=0;exitX=1;exitY=0.5;exitDx=0;exitDy=0;" edge="1" parent="1" source="NY_QWn5QvtJODzJ5zNdS-85" target="NY_QWn5QvtJODzJ5zNdS-2">
          <mxGeometry relative="1" as="geometry">
            <mxPoint x="160" y="150" as="sourcePoint" />
            <mxPoint x="330" y="140" as="targetPoint" />
          </mxGeometry>
        </mxCell>
        <mxCell id="NY_QWn5QvtJODzJ5zNdS-89" value="n" style="resizable=0;html=1;align=right;verticalAlign=bottom;" connectable="0" vertex="1" parent="NY_QWn5QvtJODzJ5zNdS-88">
          <mxGeometry x="1" relative="1" as="geometry">
            <mxPoint x="-4" as="offset" />
          </mxGeometry>
        </mxCell>
        <mxCell id="NY_QWn5QvtJODzJ5zNdS-90" value="phụ trách" style="shape=rhombus;perimeter=rhombusPerimeter;whiteSpace=wrap;html=1;align=center;" vertex="1" parent="1">
          <mxGeometry x="-40" y="180" width="80" height="40" as="geometry" />
        </mxCell>
        <mxCell id="NY_QWn5QvtJODzJ5zNdS-91" value="" style="endArrow=none;html=1;rounded=0;strokeWidth=2;entryX=0.5;entryY=1;entryDx=0;entryDy=0;exitX=0.5;exitY=0;exitDx=0;exitDy=0;" edge="1" parent="1" source="NY_QWn5QvtJODzJ5zNdS-90" target="NY_QWn5QvtJODzJ5zNdS-1">
          <mxGeometry relative="1" as="geometry">
            <mxPoint x="180" y="270" as="sourcePoint" />
            <mxPoint x="-80" y="199.9999999999999" as="targetPoint" />
          </mxGeometry>
        </mxCell>
        <mxCell id="NY_QWn5QvtJODzJ5zNdS-92" value="1" style="resizable=0;html=1;align=right;verticalAlign=bottom;" connectable="0" vertex="1" parent="NY_QWn5QvtJODzJ5zNdS-91">
          <mxGeometry x="1" relative="1" as="geometry">
            <mxPoint x="11" y="18" as="offset" />
          </mxGeometry>
        </mxCell>
        <mxCell id="NY_QWn5QvtJODzJ5zNdS-93" value="" style="endArrow=none;html=1;rounded=0;strokeWidth=2;exitX=0.5;exitY=1;exitDx=0;exitDy=0;" edge="1" parent="1" source="NY_QWn5QvtJODzJ5zNdS-90" target="NY_QWn5QvtJODzJ5zNdS-5">
          <mxGeometry relative="1" as="geometry">
            <mxPoint y="210" as="sourcePoint" />
            <mxPoint x="170" y="199.9999999999999" as="targetPoint" />
          </mxGeometry>
        </mxCell>
        <mxCell id="NY_QWn5QvtJODzJ5zNdS-94" value="n" style="resizable=0;html=1;align=right;verticalAlign=bottom;" connectable="0" vertex="1" parent="NY_QWn5QvtJODzJ5zNdS-93">
          <mxGeometry x="1" relative="1" as="geometry">
            <mxPoint x="-4" as="offset" />
          </mxGeometry>
        </mxCell>
        <mxCell id="NY_QWn5QvtJODzJ5zNdS-95" value="Sở hữu" style="shape=rhombus;perimeter=rhombusPerimeter;whiteSpace=wrap;html=1;align=center;" vertex="1" parent="1">
          <mxGeometry x="150" y="300" width="80" height="40" as="geometry" />
        </mxCell>
        <mxCell id="NY_QWn5QvtJODzJ5zNdS-96" value="" style="endArrow=none;html=1;rounded=0;strokeWidth=2;entryX=0;entryY=0.5;entryDx=0;entryDy=0;exitX=1;exitY=0.5;exitDx=0;exitDy=0;" edge="1" parent="1" source="NY_QWn5QvtJODzJ5zNdS-95" target="NY_QWn5QvtJODzJ5zNdS-7">
          <mxGeometry relative="1" as="geometry">
            <mxPoint x="260" y="320" as="sourcePoint" />
            <mxPoint x="100" y="389.9999999999999" as="targetPoint" />
          </mxGeometry>
        </mxCell>
        <mxCell id="NY_QWn5QvtJODzJ5zNdS-97" value="1" style="resizable=0;html=1;align=right;verticalAlign=bottom;" connectable="0" vertex="1" parent="NY_QWn5QvtJODzJ5zNdS-96">
          <mxGeometry x="1" relative="1" as="geometry">
            <mxPoint x="-7" as="offset" />
          </mxGeometry>
        </mxCell>
        <mxCell id="NY_QWn5QvtJODzJ5zNdS-98" value="" style="endArrow=none;html=1;rounded=0;strokeWidth=2;entryX=1;entryY=0.75;entryDx=0;entryDy=0;exitX=0;exitY=0.5;exitDx=0;exitDy=0;" edge="1" parent="1" source="NY_QWn5QvtJODzJ5zNdS-95" target="NY_QWn5QvtJODzJ5zNdS-5">
          <mxGeometry relative="1" as="geometry">
            <mxPoint x="180" y="400" as="sourcePoint" />
            <mxPoint x="350" y="389.9999999999999" as="targetPoint" />
          </mxGeometry>
        </mxCell>
        <mxCell id="NY_QWn5QvtJODzJ5zNdS-99" value="n" style="resizable=0;html=1;align=right;verticalAlign=bottom;" connectable="0" vertex="1" parent="NY_QWn5QvtJODzJ5zNdS-98">
          <mxGeometry x="1" relative="1" as="geometry">
            <mxPoint x="10" as="offset" />
          </mxGeometry>
        </mxCell>
        <mxCell id="NY_QWn5QvtJODzJ5zNdS-102" value="" style="endArrow=none;html=1;rounded=0;strokeWidth=2;exitX=0;exitY=0.5;exitDx=0;exitDy=0;entryX=1;entryY=0.5;entryDx=0;entryDy=0;" edge="1" parent="1" target="NY_QWn5QvtJODzJ5zNdS-2">
          <mxGeometry relative="1" as="geometry">
            <mxPoint x="450" y="89.99999999999989" as="sourcePoint" />
            <mxPoint x="430" y="93" as="targetPoint" />
          </mxGeometry>
        </mxCell>
        <mxCell id="NY_QWn5QvtJODzJ5zNdS-103" value="n" style="resizable=0;html=1;align=right;verticalAlign=bottom;" connectable="0" vertex="1" parent="NY_QWn5QvtJODzJ5zNdS-102">
          <mxGeometry x="1" relative="1" as="geometry">
            <mxPoint x="11" as="offset" />
          </mxGeometry>
        </mxCell>
        <mxCell id="NY_QWn5QvtJODzJ5zNdS-104" value="" style="endArrow=none;html=1;rounded=0;strokeWidth=2;entryX=0;entryY=0.5;entryDx=0;entryDy=0;exitX=1;exitY=0.5;exitDx=0;exitDy=0;" edge="1" parent="1">
          <mxGeometry relative="1" as="geometry">
            <mxPoint x="530" y="89.99999999999989" as="sourcePoint" />
            <mxPoint x="560" y="89.99999999999989" as="targetPoint" />
          </mxGeometry>
        </mxCell>
        <mxCell id="NY_QWn5QvtJODzJ5zNdS-105" value="n" style="resizable=0;html=1;align=right;verticalAlign=bottom;" connectable="0" vertex="1" parent="NY_QWn5QvtJODzJ5zNdS-104">
          <mxGeometry x="1" relative="1" as="geometry">
            <mxPoint x="-4" as="offset" />
          </mxGeometry>
        </mxCell>
        <mxCell id="NY_QWn5QvtJODzJ5zNdS-108" value="Chức vụ" style="ellipse;shape=doubleEllipse;margin=3;whiteSpace=wrap;html=1;align=center;" vertex="1" parent="1">
          <mxGeometry x="370" y="10" width="100" height="40" as="geometry" />
        </mxCell>
        <mxCell id="NY_QWn5QvtJODzJ5zNdS-111" value="Nhân thân" style="shape=ext;margin=3;double=1;whiteSpace=wrap;html=1;align=center;" vertex="1" parent="1">
          <mxGeometry x="560" y="70" width="100" height="40" as="geometry" />
        </mxCell>
        <mxCell id="NY_QWn5QvtJODzJ5zNdS-113" value="&lt;span style=&quot;border-bottom: 1px dotted&quot;&gt;Mã NT&lt;/span&gt;" style="ellipse;whiteSpace=wrap;html=1;align=center;" vertex="1" parent="1">
          <mxGeometry x="490" width="100" height="40" as="geometry" />
        </mxCell>
        <mxCell id="NY_QWn5QvtJODzJ5zNdS-114" value="Có" style="shape=rhombus;double=1;perimeter=rhombusPerimeter;whiteSpace=wrap;html=1;align=center;" vertex="1" parent="1">
          <mxGeometry x="450" y="60" width="80" height="60" as="geometry" />
        </mxCell>
      </root>
    </mxGraphModel>
  </diagram>
</mxfile>
